<svg version="1.1" id="arrow" class="button-svg" xmlns="http://www.w3.org/2000/svg" xmlns:xlink="http://www.w3.org/1999/xlink" x="0px" y="0px" width="12px" height="12px" viewBox="0 0 12 12" enable-background="new 0 0 12 12" xml:space="preserve">
<path class="fill" d="M11.854,6.354l-3,3C8.758,9.449,8.63,9.5,8.5,9.5c-0.064,0-0.13-0.013-0.191-0.038C8.122,9.385,8,9.202,8,9V7H1
	C0.448,7,0,6.552,0,6s0.448-1,1-1h7V3c0-0.202,0.122-0.385,0.309-0.462C8.495,2.46,8.71,2.503,8.854,2.646l3,3
	C12.049,5.842,12.049,6.158,11.854,6.354z"></path>
</svg>